<svg fill="#CC0202" xmlns="http://www.w3.org/2000/svg" viewBox="0 0 456.343 456.343">
	<path style="fill:#CC0202;" d="M227.773,456.343c-38.235,0-76.687-9.54-111.516-29.15c-6.462-3.637-8.749-11.827-5.112-18.289
		c3.644-6.455,11.82-8.763,18.289-5.112c78.345,44.103,177.517,30.465,241.161-33.2c78.534-78.534,78.534-206.31,0-284.844
		c-78.527-78.54-206.317-78.54-284.844,0c-78.534,78.533-78.534,206.31,0,284.844c5.238,5.245,5.238,13.75,0,18.995
		c-5.245,5.245-13.75,5.245-18.995,0c-89.003-89.01-89.003-233.824,0-322.834c89.003-89.003,233.831-89.003,322.834,0
		c89.003,89.01,89.003,233.824,0,322.834C345.744,433.431,287.024,456.336,227.773,456.343z"/>
	<path style="fill:#CC0202;" d="M197.58,334.042c-3.434,0-6.875-1.308-9.498-3.931c-5.238-5.245-5.238-13.75,0-18.995l83.52-83.52l-83.52-83.513
		c-5.238-5.245-5.238-13.75,0-18.995c5.245-5.245,13.75-5.245,18.995,0l93.011,93.011c5.238,5.245,5.238,13.75,0,18.995
		l-93.011,93.018C204.455,332.734,201.014,334.042,197.58,334.042z"/>
</svg>
