<svg fill="#CC0202" enable-background="new 0 0 510.034 510.034" height="512" viewBox="0 0 510.034 510.034" width="512" xmlns="http://www.w3.org/2000/svg"><path d="m0 30.399v365.555h238.928v53.681h-149.914v30h332.006v-30h-152.092v-53.681h241.106v-365.555zm480.034 335.555h-450.034v-39.319h210.034v19.66h30v-19.66h210zm-450.034-69.319v-236.236h450.034v236.236z"/><path d="m142.034 131.226h-15c-39.1 0-70.91 31.81-70.91 70.91 0 39.094 31.81 70.9 70.91 70.9s70.91-31.806 70.91-70.9v-15h-55.91zm23.061 85.909c-5.996 15.153-20.797 25.9-38.061 25.9-22.558 0-40.91-18.348-40.91-40.9 0-17.265 10.751-32.067 25.91-38.062v53.062z"/><path d="m174.989 83.271h-15v85.91h85.91v-15c0-39.1-31.81-70.91-70.91-70.91zm15 55.909v-23.062c10.512 4.157 18.905 12.55 23.063 23.062z"/><path d="m291.034 140.135h30v42.045h-30z"/><path d="m291.034 93.802h30v21.469h-30z"/><path d="m351.034 140.135h30v42.045h-30z"/><path d="m351.034 93.802h30v21.469h-30z"/><path d="m411.034 140.135h30v42.045h-30z"/><path d="m411.034 93.802h30v21.469h-30z"/><path d="m430.769 200.468-42.334 30.375-35.279-20.09-54.859 33.032 15.474 25.701 39.808-23.969 36.721 20.911 57.958-41.585z"/></svg>
