<svg fill="#cc0202" height="512pt" viewBox="0 0 512.0005 512" width="512pt" xmlns="http://www.w3.org/2000/svg"><path stroke="#CC0202" d="m423.835938 360.195312c-5.855469-5.855468-15.355469-5.859374-21.214844 0l-10.605469 10.605469-20.898437-20.898437c13.5625-18.054688 20.898437-39.90625 20.898437-62.890625 0-28.046875-10.921875-54.414063-30.753906-74.25-.90625-.90625-1.832031-1.785157-2.761719-2.652344 19.496094-6.605469 33.515625-29.769531 33.515625-58.101563 0-33.648437-19.765625-60.003906-45-60.003906s-45.003906 26.355469-45.003906 60.003906c0 12 2.527343 23.066407 6.90625 32.347657-12.992188-2.753907-26.414063-3.03125-39.492188-.828125-5.65625-8.144532-10.738281-16.710938-15.167969-25.570313l-.414062-.828125c-10.832031-21.664062-32.609375-35.125-56.835938-35.125-24.6875 0-48.332031 14.117188-58.832031 35.117188l-.421875.847656c-20.320312 40.636719-45.75 59.550781-57.804687 72.882812-12.863281 12.863282-19.945313 29.964844-19.945313 48.152344 0 44.488282 41.804688 76.769532 84.613282 66.070313 15.84375-3.960938 33.675781-6.105469 51.042968-6.195313 4.609375 8.089844 10.335938 15.617188 17.101563 22.382813 37.09375 37.09375 95.75 40.828125 137.128906 9.84375l20.910156 20.910156-10.605469 10.609375c-5.859374 5.855469-5.859374 15.355469 0 21.210938l75.003907 75.003906c17.546875 17.546875 46.09375 17.546875 63.640625 0 17.546875-17.542969 17.546875-46.09375 0-63.640625zm-76.820313-238.191406c6.113281 0 15 11.6875 15 30.003906 0 18.3125-8.886719 30-15 30-6.117187 0-15.003906-11.6875-15.003906-30 0-18.316406 8.886719-30.003906 15.003906-30.003906zm-209.671875 193.964844c-24.074219 6.015625-47.339844-12.195312-47.339844-36.964844 0-10.175781 3.964844-19.742187 11.160156-26.9375 11.5-12.785156 40.441407-34.710937 63.417969-80.671875l.425781-.847656c5.457032-10.917969 18.617188-18.539063 32-18.539063 12.789063 0 24.285157 7.101563 30.003907 18.550782l.414062.824218c3.738281 7.472657 7.898438 14.757813 12.410157 21.816407-9.769532 4.902343-18.929688 11.421875-27.074219 19.5625-26.136719 26.136719-35.667969 62.507812-28.414063 96.421875-16.136718.796875-32.300781 3.109375-47.003906 6.785156zm96.632812 24.078125c-29.308593-29.308594-29.316406-76.753906 0-106.070313 29.242188-29.242187 76.828126-29.246093 106.070313 0 14.167969 14.167969 21.96875 33 21.96875 53.035157 0 20.035156-7.800781 38.867187-21.96875 53.035156-29.242187 29.246094-76.828125 29.246094-106.070313 0zm243.648438 137.578125c-5.847656 5.851562-15.363281 5.851562-21.214844 0l-64.394531-64.394531 21.214844-21.214844 64.394531 64.394531c5.851562 5.851563 5.851562 15.367188 0 21.214844zm0 0"/><path stroke="#CC0202" d="m135.003906 122.003906c28.195313 0 45.003906-31.421875 45.003906-61 0-29.65625-16.90625-61.003906-45.003906-61.003906-28.191406 0-45 31.421875-45 61.003906 0 29.65625 16.90625 61 45 61zm0-92.003906c6.042969 0 15.003906 13.019531 15.003906 31.003906s-8.960937 31-15.003906 31c-6.039062 0-15-13.015625-15-31s8.960938-31.003906 15-31.003906zm0 0"/><path stroke="#CC0202" d="m90.003906 152.007812c0-33.648437-19.769531-60.003906-45.003906-60.003906-25.230469 0-45 26.355469-45 60.003906 0 33.644532 19.769531 60 45 60 25.234375 0 45.003906-26.355468 45.003906-60zm-60.003906 0c0-18.316406 8.886719-30.003906 15-30.003906 6.117188 0 15.003906 11.6875 15.003906 30.003906 0 18.3125-8.886718 30-15.003906 30-6.113281 0-15-11.6875-15-30zm0 0"/><path stroke="#CC0202" d="m257.011719 122.003906c28.191406 0 45-31.421875 45-61 0-29.65625-16.90625-61.003906-45-61.003906-28.195313 0-45.003907 31.421875-45.003907 61.003906 0 29.65625 16.910157 61 45.003907 61zm0-92.003906c6.039062 0 15 13.019531 15 31.003906s-8.960938 31-15 31c-6.042969 0-15-13.015625-15-31s8.957031-31.003906 15-31.003906zm0 0"/></svg>
