<svg fill="#CC0202" height="512" viewBox="0 0 24 24" width="512" xmlns="http://www.w3.org/2000/svg">
  <path
    d="m17 24c-1.058 0-2.115-.254-3.165-.762-.001 0-.001 0-.001 0-.507-.245-.834-.771-.834-1.338 0-2.15 1.794-3.9 4-3.9s4 1.75 4 3.9c0 .567-.327 1.093-.834 1.338-1.051.509-2.108.762-3.166.762z" />
  <path
    d="m15.32 17.135c-.231 0-.465-.063-.684-.187-.558-.317-1-1.033-1.184-1.914-.252-1.213.026-2.626 1.045-2.979.357-.125.747-.082 1.097.117.559.317 1.001 1.033 1.186 1.915v.001c.252 1.213-.026 2.625-1.045 2.978-.134.046-.274.069-.415.069z" />
  <path
    d="m18.759 17.135c-.14 0-.279-.023-.414-.069-1.019-.352-1.297-1.765-1.045-2.978.184-.882.626-1.598 1.185-1.915.35-.198.738-.241 1.097-.117 1.019.353 1.297 1.765 1.045 2.979-.184.882-.626 1.598-1.185 1.915-.218.123-.452.185-.683.185z" />
  <path
    d="m12.23 18.985c-.678 0-1.402-.433-1.853-1.173-.348-.571-.463-1.213-.316-1.761.109-.408.361-.738.709-.928.819-.449 1.941-.011 2.555.997.348.571.463 1.213.316 1.761-.109.408-.361.738-.709.928-.217.119-.456.176-.702.176z" />
  <path
    d="m21.77 18.985c-.245 0-.484-.057-.703-.177-.347-.19-.599-.52-.708-.928-.146-.548-.031-1.19.316-1.761.612-1.008 1.734-1.446 2.555-.997.348.19.6.52.709.928.146.548.031 1.19-.316 1.761-.451.741-1.176 1.174-1.853 1.174z" />
  <path d="m8 12c-2.206 0-4-1.794-4-4s1.794-4 4-4 4 1.794 4 4-1.794 4-4 4z" />
  <path
    d="m8.669 18.85c-.03-.05-.047-.105-.076-.155-.206.266-.407.521-.593.75-2.18-2.686-6-8.091-6-11.445 0-3.309 2.691-6 6-6s6 2.691 6 6c0 .689-.168 1.467-.443 2.288.094-.043.187-.088.286-.122.597-.208 1.24-.217 1.857-.066.191-.729.3-1.436.3-2.1 0-4.411-3.589-8-8-8s-8 3.589-8 8c0 5.314 6.951 13.32 7.247 13.659.19.216.465.341.753.341s.562-.125.753-.341c.071-.082.534-.616 1.188-1.443-.496-.354-.936-.812-1.272-1.366z" />
  </svg>